<?xml version="1.0" standalone="no"?>
<!DOCTYPE svg PUBLIC "-//W3C//DTD SVG 20010904//EN"
 "http://www.w3.org/TR/2001/REC-SVG-20010904/DTD/svg10.dtd">
<svg version="1.0" xmlns="http://www.w3.org/2000/svg"
 width="293.000000pt" height="293.000000pt" viewBox="0 0 293.000000 293.000000"
 preserveAspectRatio="xMidYMid meet">
<metadata>
Created by potrace 1.14, written by Peter Selinger 2001-2017
</metadata>
<g transform="translate(0.000000,293.000000) scale(0.100000,-0.100000)"
fill="#000000" stroke="none">
<path d="M1475 2760 c-47 -11 -110 -47 -136 -77 -15 -17 -36 -29 -54 -31 -101
-10 -332 -106 -465 -193 -87 -58 -265 -237 -324 -327 -80 -124 -150 -277 -171
-376 -2 -12 -6 -31 -9 -43 -4 -19 0 -22 37 -25 23 -1 67 -1 97 2 l55 5 11 45
c6 25 21 66 33 92 11 26 21 49 21 52 0 13 79 138 124 196 139 180 314 298 548
370 26 8 29 5 52 -46 57 -125 192 -187 318 -145 62 21 158 128 158 178 0 17 6
17 75 -8 111 -39 227 -102 305 -165 52 -43 156 -153 198 -209 67 -91 143 -252
156 -331 2 -16 5 -29 6 -29 1 0 3 -10 6 -22 3 -18 -4 -26 -39 -41 -175 -78
-211 -307 -68 -434 34 -31 91 -62 92 -51 0 5 4 -1 8 -12 16 -40 -76 -248 -161
-363 -85 -115 -228 -234 -358 -298 -65 -33 -201 -85 -207 -80 -1 1 -4 17 -8
36 -6 42 -35 110 -46 110 -4 0 -10 8 -13 18 -8 23 -70 64 -119 79 -48 14 -121
10 -168 -9 -84 -36 -152 -132 -158 -224 -1 -15 -128 23 -216 65 -123 57 -278
179 -363 285 -69 87 -141 215 -173 311 -7 22 -17 44 -21 50 -5 5 -49 10 -98
10 -103 1 -100 5 -71 -95 84 -294 350 -599 643 -739 58 -27 195 -77 243 -88
47 -10 64 -13 93 -16 16 -2 43 -12 59 -23 15 -10 30 -19 33 -20 3 0 12 -3 20
-6 85 -33 163 -32 233 2 26 13 47 27 47 32 0 4 17 10 38 14 197 34 413 134
567 264 46 39 185 182 185 191 0 4 6 14 13 21 77 78 204 357 212 463 2 32 12
49 48 86 107 111 99 285 -16 386 -29 25 -35 37 -35 72 -1 56 -44 202 -88 298
-30 68 -87 168 -104 183 -3 3 -18 23 -35 45 -66 91 -231 240 -328 297 -114 67
-320 152 -387 160 -14 2 -39 17 -55 34 -58 61 -162 93 -240 74z"/>
<path d="M1044 2009 c-3 -5 -4 -30 -3 -56 3 -81 4 -79 -48 -80 -76 -2 -116
-13 -153 -41 -77 -57 -111 -112 -114 -187 l-2 -40 -264 0 c-250 1 -266 0 -288
-19 -16 -14 -22 -29 -20 -53 1 -18 6 -33 12 -33 5 0 6 -3 3 -7 -4 -3 6 -13 21
-21 22 -12 96 -15 422 -16 217 0 401 -5 409 -10 11 -7 12 -6 6 5 -7 12 -6 12
7 1 12 -9 15 -32 14 -104 l-1 -93 -79 -1 c-67 -1 -81 2 -95 19 -34 42 -64 69
-86 77 -13 5 -180 8 -372 8 l-348 -2 -28 -27 c-23 -23 -26 -31 -17 -53 5 -14
7 -26 3 -26 -4 0 2 -6 12 -14 22 -15 121 -19 457 -17 l206 1 0 -49 c1 -51 21
-111 46 -136 8 -8 16 -18 18 -22 6 -14 72 -60 98 -68 45 -15 54 -17 115 -20
36 -1 61 -7 61 -14 1 -6 2 -22 3 -35 1 -28 21 -35 69 -25 17 4 32 4 32 0 0 -5
215 -6 490 -2 36 1 111 1 166 1 56 0 119 2 140 5 97 15 204 98 246 192 21 48
30 169 16 220 -17 58 -62 124 -110 160 -18 12 -27 23 -21 23 17 0 82 69 103
110 16 32 25 65 34 125 5 31 -21 129 -45 172 -37 68 -99 117 -175 141 -66 20
-88 21 -502 20 -238 0 -435 -4 -438 -9z m809 -270 c26 -12 57 -57 57 -84 0
-27 -27 -70 -52 -84 -14 -7 -42 -13 -64 -15 l-39 -2 -1 -117 c-1 -79 2 -119
10 -124 6 -4 31 -8 55 -9 50 -3 86 -31 100 -81 11 -36 -2 -67 -39 -94 -22 -16
-47 -19 -215 -19 -104 -1 -199 -1 -210 0 -19 0 -20 6 -20 78 l0 77 80 2 c44 1
87 2 95 2 13 1 16 25 17 159 l2 159 -91 1 c-50 1 -94 5 -97 8 -3 3 -6 39 -6
80 l-1 74 198 0 c120 0 206 -4 221 -11z"/>
</g>
</svg>
